<?xml version="1.0" encoding="utf-8"?>
<!-- Generator: Adobe Illustrator 16.0.0, SVG Export Plug-In . SVG Version: 6.00 Build 0)  -->
<!DOCTYPE svg PUBLIC "-//W3C//DTD SVG 1.1//EN" "http://www.w3.org/Graphics/SVG/1.1/DTD/svg11.dtd">
<svg version="1.1" id="Layer_1" xmlns="http://www.w3.org/2000/svg" xmlns:xlink="http://www.w3.org/1999/xlink" x="0px" y="0px"
	 width="50px" height="102.04px" viewBox="0 0 50 102.04" enable-background="new 0 0 50 102.04" xml:space="preserve">
<g>
	<path d="M25.001,0C11.215,0,0,11.215,0,25v7.66v4.098v3.582v15.319v14.295V88.54v13.5h13.501c4.19,0,8.122-1.137,11.5-3.119
		c3.377,1.982,7.308,3.119,11.498,3.119H50v-13.5V69.954V55.659V40.34v-3.582V32.66V25C50,11.215,38.785,0,25.001,0L25.001,0z"/>
</g>
<g>
	<path fill="#CCCCCC" d="M25.001,13.5c6.351,0,11.498,5.148,11.498,11.5v7.66c-1.015,1.518-2.32,2.825-3.839,3.84
		c1.519,1.014,2.824,2.321,3.839,3.839v15.319v14.295V88.54c-5.132,0-9.292-4.162-9.292-9.293V51.019h-4.414v28.228
		c0,5.131-4.161,9.293-9.292,9.293V69.954V55.659V40.34c1.015-1.518,2.322-2.825,3.84-3.839c-1.518-1.016-2.825-2.322-3.84-3.84V25
		C13.501,18.649,18.649,13.5,25.001,13.5"/>
</g>
</svg>
